<?xml version="1.0" standalone="no"?>
<!DOCTYPE svg PUBLIC "-//W3C//DTD SVG 20010904//EN"
 "http://www.w3.org/TR/2001/REC-SVG-20010904/DTD/svg10.dtd">
<svg version="1.0" xmlns="http://www.w3.org/2000/svg"
 width="512.000000pt" height="512.000000pt" viewBox="0 0 512.000000 512.000000"
 preserveAspectRatio="xMidYMid meet">
<metadata>
Created by potrace 1.11, written by Peter Selinger 2001-2013
</metadata>
<g transform="translate(0.000000,512.000000) scale(0.100000,-0.100000)"
fill="#000000" stroke="none">
<path d="M1328 4915 c-2 -1 -27 -6 -57 -9 -80 -10 -196 -52 -283 -103 -200
-116 -337 -314 -384 -553 -4 -19 -8 -768 -8 -1665 -2 -1691 -1 -1712 39 -1830
90 -260 293 -448 565 -521 l85 -23 1295 2 1295 2 68 22 c195 63 339 168 446
328 40 60 72 118 75 135 1 3 4 10 8 16 19 30 50 184 52 265 10 329 -171 622
-467 758 -149 68 -96 65 -1022 71 l-840 5 -1 1210 c-1 1183 -2 1212 -22 1285
-96 354 -388 590 -749 604 -51 2 -93 2 -95 1z"/>
</g>
</svg>
